<mxfile host="app.diagrams.net" modified="2022-12-14T05:02:01.106Z" agent="5.0 (Windows NT 10.0; WOW64) AppleWebKit/537.36 (KHTML, like Gecko) Chrome/106.0.0.0 YaBrowser/22.11.2.803 Yowser/2.5 Safari/537.36" etag="0DaTuK3wT9Y7pHWl1WIg" version="20.6.2" type="github">
  <diagram id="35rvoHK9YYEynTDG2oOF" name="Страница 1">
    <mxGraphModel dx="1374" dy="765" grid="1" gridSize="10" guides="1" tooltips="1" connect="1" arrows="1" fold="1" page="1" pageScale="1" pageWidth="827" pageHeight="1169" math="0" shadow="0">
      <root>
        <mxCell id="0" />
        <mxCell id="1" parent="0" />
        <mxCell id="T5mHWWdaawg1E7VZt2Wk-1" style="edgeStyle=orthogonalEdgeStyle;rounded=0;orthogonalLoop=1;jettySize=auto;html=1;entryX=0.5;entryY=0;entryDx=0;entryDy=0;" parent="1" source="T5mHWWdaawg1E7VZt2Wk-2" target="T5mHWWdaawg1E7VZt2Wk-5" edge="1">
          <mxGeometry relative="1" as="geometry" />
        </mxCell>
        <mxCell id="T5mHWWdaawg1E7VZt2Wk-2" value="Start" style="ellipse;whiteSpace=wrap;html=1;" parent="1" vertex="1">
          <mxGeometry x="340" y="70" width="120" height="80" as="geometry" />
        </mxCell>
        <mxCell id="T5mHWWdaawg1E7VZt2Wk-3" value="&lt;span style=&quot;color: rgb(44, 45, 48); font-family: Roboto, &amp;quot;San Francisco&amp;quot;, &amp;quot;Helvetica Neue&amp;quot;, Helvetica, Arial; font-size: 15px; text-align: left; background-color: rgb(255, 255, 255);&quot;&gt;Найти второе максимальное число&lt;/span&gt;" style="text;html=1;strokeColor=none;fillColor=none;align=center;verticalAlign=middle;whiteSpace=wrap;rounded=0;" parent="1" vertex="1">
          <mxGeometry x="15" y="10" width="770" height="30" as="geometry" />
        </mxCell>
        <mxCell id="T5mHWWdaawg1E7VZt2Wk-4" style="edgeStyle=orthogonalEdgeStyle;rounded=0;orthogonalLoop=1;jettySize=auto;html=1;entryX=0.5;entryY=0;entryDx=0;entryDy=0;" parent="1" source="T5mHWWdaawg1E7VZt2Wk-5" target="T5mHWWdaawg1E7VZt2Wk-7" edge="1">
          <mxGeometry relative="1" as="geometry" />
        </mxCell>
        <mxCell id="T5mHWWdaawg1E7VZt2Wk-5" value="input arr" style="shape=parallelogram;perimeter=parallelogramPerimeter;whiteSpace=wrap;html=1;fixedSize=1;" parent="1" vertex="1">
          <mxGeometry x="340" y="170" width="120" height="60" as="geometry" />
        </mxCell>
        <mxCell id="T5mHWWdaawg1E7VZt2Wk-31" style="edgeStyle=orthogonalEdgeStyle;rounded=0;orthogonalLoop=1;jettySize=auto;html=1;entryX=0.541;entryY=-0.05;entryDx=0;entryDy=0;entryPerimeter=0;" parent="1" source="T5mHWWdaawg1E7VZt2Wk-7" target="T5mHWWdaawg1E7VZt2Wk-10" edge="1">
          <mxGeometry relative="1" as="geometry" />
        </mxCell>
        <mxCell id="T5mHWWdaawg1E7VZt2Wk-7" value="max = arr [0]&lt;br&gt;secondMax = arr [0]&lt;br&gt;temp = 0" style="rounded=0;whiteSpace=wrap;html=1;" parent="1" vertex="1">
          <mxGeometry x="320" y="250" width="160" height="80" as="geometry" />
        </mxCell>
        <mxCell id="Awgu1XFtsmoJAbiRFwZI-22" style="edgeStyle=orthogonalEdgeStyle;rounded=0;orthogonalLoop=1;jettySize=auto;html=1;entryX=0;entryY=0.5;entryDx=0;entryDy=0;" edge="1" parent="1" source="T5mHWWdaawg1E7VZt2Wk-10" target="Awgu1XFtsmoJAbiRFwZI-19">
          <mxGeometry relative="1" as="geometry">
            <Array as="points">
              <mxPoint x="130" y="370" />
              <mxPoint x="130" y="700" />
            </Array>
          </mxGeometry>
        </mxCell>
        <mxCell id="T5mHWWdaawg1E7VZt2Wk-10" value="i = 0; i &amp;lt; arr.lenght; i++" style="shape=hexagon;perimeter=hexagonPerimeter2;whiteSpace=wrap;html=1;fixedSize=1;" parent="1" vertex="1">
          <mxGeometry x="295" y="370" width="185" height="80" as="geometry" />
        </mxCell>
        <mxCell id="Awgu1XFtsmoJAbiRFwZI-12" style="edgeStyle=orthogonalEdgeStyle;rounded=0;orthogonalLoop=1;jettySize=auto;html=1;entryX=1;entryY=0.5;entryDx=0;entryDy=0;" edge="1" parent="1" source="Awgu1XFtsmoJAbiRFwZI-10" target="Awgu1XFtsmoJAbiRFwZI-11">
          <mxGeometry relative="1" as="geometry" />
        </mxCell>
        <mxCell id="Awgu1XFtsmoJAbiRFwZI-15" style="edgeStyle=orthogonalEdgeStyle;rounded=0;orthogonalLoop=1;jettySize=auto;html=1;entryX=0;entryY=0.5;entryDx=0;entryDy=0;" edge="1" parent="1" source="Awgu1XFtsmoJAbiRFwZI-10" target="Awgu1XFtsmoJAbiRFwZI-14">
          <mxGeometry relative="1" as="geometry" />
        </mxCell>
        <mxCell id="Awgu1XFtsmoJAbiRFwZI-10" value="arr [i] &amp;gt;= max" style="rhombus;whiteSpace=wrap;html=1;" vertex="1" parent="1">
          <mxGeometry x="291.25" y="490" width="192.5" height="80" as="geometry" />
        </mxCell>
        <mxCell id="Awgu1XFtsmoJAbiRFwZI-18" style="edgeStyle=orthogonalEdgeStyle;rounded=0;orthogonalLoop=1;jettySize=auto;html=1;entryX=0;entryY=0.5;entryDx=0;entryDy=0;" edge="1" parent="1" source="Awgu1XFtsmoJAbiRFwZI-11" target="T5mHWWdaawg1E7VZt2Wk-10">
          <mxGeometry relative="1" as="geometry">
            <Array as="points">
              <mxPoint x="220" y="410" />
            </Array>
          </mxGeometry>
        </mxCell>
        <mxCell id="Awgu1XFtsmoJAbiRFwZI-11" value="max = arr [i]" style="rounded=0;whiteSpace=wrap;html=1;" vertex="1" parent="1">
          <mxGeometry x="150" y="500" width="120" height="60" as="geometry" />
        </mxCell>
        <mxCell id="Awgu1XFtsmoJAbiRFwZI-13" value="true" style="text;html=1;align=center;verticalAlign=middle;resizable=0;points=[];autosize=1;strokeColor=none;fillColor=none;" vertex="1" parent="1">
          <mxGeometry x="270" y="495" width="40" height="30" as="geometry" />
        </mxCell>
        <mxCell id="Awgu1XFtsmoJAbiRFwZI-17" style="edgeStyle=orthogonalEdgeStyle;rounded=0;orthogonalLoop=1;jettySize=auto;html=1;entryX=1;entryY=0.5;entryDx=0;entryDy=0;" edge="1" parent="1" source="Awgu1XFtsmoJAbiRFwZI-14" target="T5mHWWdaawg1E7VZt2Wk-10">
          <mxGeometry relative="1" as="geometry">
            <Array as="points">
              <mxPoint x="600" y="410" />
            </Array>
          </mxGeometry>
        </mxCell>
        <mxCell id="Awgu1XFtsmoJAbiRFwZI-14" value="min = arr [i]" style="rounded=0;whiteSpace=wrap;html=1;" vertex="1" parent="1">
          <mxGeometry x="540" y="500" width="120" height="60" as="geometry" />
        </mxCell>
        <mxCell id="Awgu1XFtsmoJAbiRFwZI-16" value="false" style="text;html=1;align=center;verticalAlign=middle;resizable=0;points=[];autosize=1;strokeColor=none;fillColor=none;" vertex="1" parent="1">
          <mxGeometry x="475" y="505" width="50" height="30" as="geometry" />
        </mxCell>
        <mxCell id="Awgu1XFtsmoJAbiRFwZI-35" style="edgeStyle=orthogonalEdgeStyle;rounded=0;orthogonalLoop=1;jettySize=auto;html=1;entryX=0.668;entryY=0.013;entryDx=0;entryDy=0;entryPerimeter=0;" edge="1" parent="1" source="Awgu1XFtsmoJAbiRFwZI-19" target="Awgu1XFtsmoJAbiRFwZI-24">
          <mxGeometry relative="1" as="geometry" />
        </mxCell>
        <mxCell id="Awgu1XFtsmoJAbiRFwZI-19" value="temp = max&lt;br&gt;max = min" style="rounded=0;whiteSpace=wrap;html=1;" vertex="1" parent="1">
          <mxGeometry x="150" y="670" width="210" height="60" as="geometry" />
        </mxCell>
        <mxCell id="Awgu1XFtsmoJAbiRFwZI-37" style="edgeStyle=orthogonalEdgeStyle;rounded=0;orthogonalLoop=1;jettySize=auto;html=1;entryX=0;entryY=0.75;entryDx=0;entryDy=0;" edge="1" parent="1" source="Awgu1XFtsmoJAbiRFwZI-24" target="Awgu1XFtsmoJAbiRFwZI-36">
          <mxGeometry relative="1" as="geometry">
            <Array as="points">
              <mxPoint x="500" y="860" />
              <mxPoint x="500" y="860" />
            </Array>
          </mxGeometry>
        </mxCell>
        <mxCell id="Awgu1XFtsmoJAbiRFwZI-38" style="edgeStyle=orthogonalEdgeStyle;rounded=0;orthogonalLoop=1;jettySize=auto;html=1;entryX=0.5;entryY=0;entryDx=0;entryDy=0;" edge="1" parent="1" source="Awgu1XFtsmoJAbiRFwZI-24" target="Awgu1XFtsmoJAbiRFwZI-27">
          <mxGeometry relative="1" as="geometry" />
        </mxCell>
        <mxCell id="Awgu1XFtsmoJAbiRFwZI-24" value="j = 0; j &amp;lt; arr.lenght; j++" style="shape=hexagon;perimeter=hexagonPerimeter2;whiteSpace=wrap;html=1;fixedSize=1;" vertex="1" parent="1">
          <mxGeometry x="277.5" y="840" width="185" height="80" as="geometry" />
        </mxCell>
        <mxCell id="Awgu1XFtsmoJAbiRFwZI-25" style="edgeStyle=orthogonalEdgeStyle;rounded=0;orthogonalLoop=1;jettySize=auto;html=1;entryX=1;entryY=0.5;entryDx=0;entryDy=0;" edge="1" parent="1" source="Awgu1XFtsmoJAbiRFwZI-27" target="Awgu1XFtsmoJAbiRFwZI-29">
          <mxGeometry relative="1" as="geometry" />
        </mxCell>
        <mxCell id="Awgu1XFtsmoJAbiRFwZI-27" value="arr [i] &amp;gt;= max" style="rhombus;whiteSpace=wrap;html=1;" vertex="1" parent="1">
          <mxGeometry x="273.75" y="960" width="192.5" height="80" as="geometry" />
        </mxCell>
        <mxCell id="Awgu1XFtsmoJAbiRFwZI-28" style="edgeStyle=orthogonalEdgeStyle;rounded=0;orthogonalLoop=1;jettySize=auto;html=1;entryX=0;entryY=0.5;entryDx=0;entryDy=0;" edge="1" parent="1" source="Awgu1XFtsmoJAbiRFwZI-29" target="Awgu1XFtsmoJAbiRFwZI-24">
          <mxGeometry relative="1" as="geometry">
            <Array as="points">
              <mxPoint x="202.5" y="880" />
            </Array>
          </mxGeometry>
        </mxCell>
        <mxCell id="Awgu1XFtsmoJAbiRFwZI-29" value="secondMax&amp;nbsp;= arr [i]" style="rounded=0;whiteSpace=wrap;html=1;" vertex="1" parent="1">
          <mxGeometry x="132.5" y="970" width="120" height="60" as="geometry" />
        </mxCell>
        <mxCell id="Awgu1XFtsmoJAbiRFwZI-30" value="true" style="text;html=1;align=center;verticalAlign=middle;resizable=0;points=[];autosize=1;strokeColor=none;fillColor=none;" vertex="1" parent="1">
          <mxGeometry x="252.5" y="965" width="40" height="30" as="geometry" />
        </mxCell>
        <mxCell id="Awgu1XFtsmoJAbiRFwZI-40" style="edgeStyle=orthogonalEdgeStyle;rounded=0;orthogonalLoop=1;jettySize=auto;html=1;entryX=0.5;entryY=0;entryDx=0;entryDy=0;" edge="1" parent="1" source="Awgu1XFtsmoJAbiRFwZI-36" target="Awgu1XFtsmoJAbiRFwZI-39">
          <mxGeometry relative="1" as="geometry" />
        </mxCell>
        <mxCell id="Awgu1XFtsmoJAbiRFwZI-36" value="print secondMax&amp;nbsp;" style="shape=document;whiteSpace=wrap;html=1;boundedLbl=1;size=0.375;" vertex="1" parent="1">
          <mxGeometry x="550" y="800" width="120" height="80" as="geometry" />
        </mxCell>
        <mxCell id="Awgu1XFtsmoJAbiRFwZI-39" value="max = temp&amp;nbsp;" style="rounded=0;whiteSpace=wrap;html=1;" vertex="1" parent="1">
          <mxGeometry x="505" y="920" width="210" height="60" as="geometry" />
        </mxCell>
        <mxCell id="Awgu1XFtsmoJAbiRFwZI-41" value="End" style="ellipse;whiteSpace=wrap;html=1;" vertex="1" parent="1">
          <mxGeometry x="550" y="1030" width="120" height="80" as="geometry" />
        </mxCell>
      </root>
    </mxGraphModel>
  </diagram>
</mxfile>
